<svg width="341" height="334" viewBox="0 0 341 334" fill="none" xmlns="http://www.w3.org/2000/svg">
<g clip-path="url(#clip0_217_1366)">
<path d="M170.5 333.278C262.332 333.278 336.777 258.833 336.777 167.001C336.777 75.1689 262.332 0.724121 170.5 0.724121C78.6676 0.724121 4.2229 75.1689 4.2229 167.001C4.2229 258.833 78.6676 333.278 170.5 333.278Z" stroke="#F4F4F4"/>
<path opacity="0.2" d="M170.5 317.495C253.616 317.495 320.995 250.116 320.995 167C320.995 83.8838 253.616 16.5049 170.5 16.5049C87.3838 16.5049 20.0049 83.8838 20.0049 167C20.0049 250.116 87.3838 317.495 170.5 317.495Z" stroke="#2F82FF"/>
<path d="M170.5 301.335C244.691 301.335 304.834 241.192 304.834 167.001C304.834 92.8104 244.691 32.667 170.5 32.667C96.3094 32.667 36.166 92.8104 36.166 167.001C36.166 241.192 96.3094 301.335 170.5 301.335Z" stroke="#F4F4F4"/>
<path opacity="0.2" d="M170.5 286.893C236.715 286.893 290.393 233.215 290.393 167C290.393 100.785 236.715 47.1069 170.5 47.1069C104.285 47.1069 50.6069 100.785 50.6069 167C50.6069 233.215 104.285 286.893 170.5 286.893Z" stroke="#2F82FF"/>
<path d="M170.5 273.447C229.289 273.447 276.947 225.789 276.947 167C276.947 108.211 229.289 60.5532 170.5 60.5532C111.711 60.5532 64.053 108.211 64.053 167C64.053 225.789 111.711 273.447 170.5 273.447Z" stroke="#F4F4F4"/>
<path opacity="0.2" d="M170.5 259.188C221.414 259.188 262.688 217.914 262.688 167C262.688 116.086 221.414 74.812 170.5 74.812C119.586 74.812 78.312 116.086 78.312 167C78.312 217.914 119.586 259.188 170.5 259.188Z" stroke="#2F82FF"/>
<path d="M170.5 243.907C212.975 243.907 247.407 209.475 247.407 167C247.407 124.526 212.975 90.0933 170.5 90.0933C128.026 90.0933 93.5933 124.526 93.5933 167C93.5933 209.475 128.026 243.907 170.5 243.907Z" stroke="#F4F4F4"/>
<path opacity="0.2" d="M170.5 228.88C204.676 228.88 232.38 201.175 232.38 167C232.38 132.824 204.676 105.12 170.5 105.12C136.325 105.12 108.62 132.824 108.62 167C108.62 201.175 136.325 228.88 170.5 228.88Z" stroke="#2F82FF"/>
<path d="M89.4764 316.426C91.4738 316.426 93.093 314.807 93.093 312.809C93.093 310.812 91.4738 309.193 89.4764 309.193C87.479 309.193 85.8599 310.812 85.8599 312.809C85.8599 314.807 87.479 316.426 89.4764 316.426Z" fill="#D4579D"/>
<path d="M238.119 305.451C240.116 305.451 241.736 303.832 241.736 301.835C241.736 299.837 240.116 298.218 238.119 298.218C236.122 298.218 234.502 299.837 234.502 301.835C234.502 303.832 236.122 305.451 238.119 305.451Z" fill="#68C2C0"/>
<path d="M337.277 180.59C339.274 180.59 340.893 178.97 340.893 176.973C340.893 174.976 339.274 173.356 337.277 173.356C335.279 173.356 333.66 174.976 333.66 176.973C333.66 178.97 335.279 180.59 337.277 180.59Z" fill="#994FD0"/>
<path d="M223.253 12.8845C225.25 12.8845 226.869 11.2653 226.869 9.26791C226.869 7.27055 225.25 5.65137 223.253 5.65137C221.255 5.65137 219.636 7.27055 219.636 9.26791C219.636 11.2653 221.255 12.8845 223.253 12.8845Z" fill="#2F82FF"/>
<path d="M298.791 93.2101C300.789 93.2101 302.408 91.591 302.408 89.5936C302.408 87.5962 300.789 85.9771 298.791 85.9771C296.794 85.9771 295.175 87.5962 295.175 89.5936C295.175 91.591 296.794 93.2101 298.791 93.2101Z" fill="#2F82FF"/>
<path d="M70.7623 58.1364C72.7597 58.1364 74.3788 56.5172 74.3788 54.5199C74.3788 52.5225 72.7597 50.9033 70.7623 50.9033C68.7649 50.9033 67.1458 52.5225 67.1458 54.5199C67.1458 56.5172 68.7649 58.1364 70.7623 58.1364Z" fill="#68C2C0"/>
<path d="M4.44369 175.906C6.44106 175.906 8.06024 174.287 8.06024 172.289C8.06024 170.292 6.44106 168.673 4.44369 168.673C2.44633 168.673 0.827148 170.292 0.827148 172.289C0.827148 174.287 2.44633 175.906 4.44369 175.906Z" fill="#1454AF"/>
<path d="M163.766 68.9787C164.495 67.6373 166.391 66.0004 168.012 65.3136C168.547 65.0872 170.091 64.9527 171.442 65.0154C174.166 65.1411 175.223 65.7276 177.233 68.2273L178.438 69.725L178.555 97.8282L178.674 125.931L180.131 126.199C180.933 126.346 183.095 126.994 184.936 127.64C192.647 130.342 197.239 133.78 197.753 137.232C198.323 141.06 197.094 143.897 194.101 145.663C191.279 147.328 189.515 147.157 184.266 144.707C177.897 141.734 176.058 141.258 170.954 141.263C163.311 141.271 157.909 143.421 152.442 148.632C148.748 152.152 146.462 155.443 144.914 159.467C144.004 161.835 143.821 163.003 143.671 167.416C143.537 171.34 143.648 173.208 144.13 175.149C146.028 182.783 151.553 189.672 158.548 193.127C163.4 195.523 166.98 196.287 172.136 196.024C179.273 195.661 184.791 193.242 189.776 188.293C194.606 183.497 197.07 178.612 198.001 171.983C198.605 167.688 197.976 163.365 195.892 157.466C194.313 153.002 194.285 152.831 194.761 150.687C195.962 145.286 202.391 142.872 206.873 146.141C209.707 148.208 212.869 155.924 213.717 162.838C214.296 167.567 213.96 174.379 212.953 178.315C210.183 189.142 203.572 198.534 194.389 204.689C186.758 209.804 179.409 212.023 170.177 212C151.978 211.955 135.143 199.495 129.667 182.019C127.272 174.374 127.289 174.653 127.138 139.765L127 107.77L127.993 105.797C129.111 103.575 130.442 102.462 132.75 101.819C136.987 100.637 140.389 102.167 142.415 106.163C143.14 107.594 143.187 108.564 143.187 121.979C143.187 135.634 143.22 136.27 143.918 136.27C145.038 136.27 145.15 133.607 145.154 107.044L145.156 83.1719L147.126 81.1888C150.081 78.2144 152.868 77.6597 156.442 79.3354C158.006 80.0682 158.726 80.7229 159.576 82.1825L160.68 84.078L160.894 105.118C161.011 116.69 161.261 126.397 161.448 126.688C162.561 128.426 162.686 125.963 162.88 98.2822C163.061 72.5626 163.134 70.1422 163.766 68.9787Z" fill="#2F82FF"/>
<path d="M168.797 164.189C168.782 160.203 171.11 156.901 174.943 155.465C176.895 154.734 180.022 154.989 182.08 156.045C186.329 158.228 188.379 163.637 186.541 167.821C185.421 170.37 184.377 171.464 181.982 172.601C175.625 175.619 168.822 171.279 168.797 164.189Z" fill="#2F82FF"/>
</g>
<defs>
<clipPath id="clip0_217_1366">
<rect width="341" height="334" fill="white"/>
</clipPath>
</defs>
</svg>
