<svg xmlns="http://www.w3.org/2000/svg" width="19" height="32" viewBox="0 0 19 32" fill="none">
  <path d="M8.02933 0.866122C8.18846 0.5741 8.60262 0.21777 8.95667 0.0682631C9.07347 0.0189742 9.41066 -0.0102885 9.70578 0.00335012C10.3007 0.0307137 10.5315 0.158381 10.9705 0.702545L11.2335 1.02858L11.2592 7.14627L11.285 13.264L11.6033 13.3221C11.7784 13.3542 12.2506 13.4953 12.6528 13.6358C14.3366 14.2242 15.3396 14.9725 15.4518 15.724C15.5764 16.5573 15.3079 17.1749 14.6542 17.5593C14.0379 17.9218 13.6527 17.8844 12.5064 17.3511C11.1154 16.704 10.7137 16.6004 9.5992 16.6015C7.92989 16.6033 6.75027 17.0712 5.5562 18.2055C4.74945 18.9719 4.25022 19.6882 3.91235 20.5642C3.71348 21.0797 3.67365 21.334 3.64071 22.2947C3.61155 23.1488 3.63572 23.5555 3.74109 23.978C4.1556 25.6399 5.36206 27.1395 6.8897 27.8916C7.94942 28.4133 8.73122 28.5794 9.85725 28.5223C11.4159 28.4431 12.621 27.9167 13.7097 26.8392C14.7646 25.7952 15.3027 24.7318 15.506 23.2889C15.6378 22.3538 15.5006 21.4127 15.0453 20.1288C14.7006 19.1568 14.6944 19.1196 14.7983 18.653C15.0606 17.4772 16.4647 16.9518 17.4435 17.6635C18.0624 18.1134 18.7531 19.7929 18.9381 21.298C19.0647 22.3274 18.9913 23.8105 18.7714 24.6671C18.1664 27.024 16.7226 29.0686 14.7172 30.4085C13.0505 31.5219 11.4455 32.005 9.42941 32C5.45496 31.9901 1.77829 29.2778 0.5825 25.4736C0.059437 23.8094 0.0630495 23.8701 0.0301914 16.2753L0 9.31041L0.216846 8.88088C0.461045 8.39731 0.751693 8.15501 1.25566 8.01491C2.18102 7.75768 2.92411 8.0907 3.36641 8.96072C3.52476 9.27225 3.53508 9.48331 3.53508 12.4035C3.53508 15.3761 3.54222 15.5145 3.69464 15.5145C3.93927 15.5145 3.96387 14.9348 3.96456 9.15253L3.96516 3.95578L4.39533 3.5241C5.04062 2.87661 5.64927 2.75585 6.42995 3.12064C6.77143 3.28016 6.92875 3.42267 7.11438 3.74042L7.35531 4.15303L7.4021 8.73318C7.42773 11.2523 7.48218 13.3653 7.52304 13.4287C7.76629 13.8071 7.79339 13.271 7.83588 7.24511C7.87536 1.64628 7.89127 1.11939 8.02933 0.866122Z" fill="#2F82FF"/>
  <path d="M9.12801 21.5921C9.12491 20.7245 9.63318 20.0056 10.4703 19.6931C10.8967 19.534 11.5795 19.5893 12.0289 19.8194C12.957 20.2945 13.4045 21.4721 13.0031 22.3828C12.7586 22.9377 12.5307 23.1759 12.0076 23.4234C10.6193 24.0804 9.13351 23.1356 9.12801 21.5921Z" fill="#2F82FF"/>
</svg>