<svg width="41" height="41" viewBox="0 0 41 41" fill="none" xmlns="http://www.w3.org/2000/svg">
<rect x="0.5" y="0.5" width="40" height="40" rx="11.5" fill="white" stroke="#E8ECF4"/>
<path d="M23.1575 13.3669C23.0656 13.2747 22.9564 13.2016 22.8362 13.1517C22.7159 13.1019 22.587 13.0762 22.4569 13.0762C22.3267 13.0762 22.1978 13.1019 22.0776 13.1517C21.9574 13.2016 21.8482 13.2747 21.7563 13.3669L15.1775 19.9456C15.1041 20.0189 15.0459 20.1059 15.0062 20.2017C14.9664 20.2974 14.946 20.4001 14.946 20.5038C14.946 20.6075 14.9664 20.7101 15.0062 20.8059C15.0459 20.9017 15.1041 20.9887 15.1775 21.0619L21.7563 27.6406C22.1442 28.0286 22.7696 28.0286 23.1575 27.6406C23.5454 27.2527 23.5454 26.6273 23.1575 26.2394L17.4258 20.4998L23.1654 14.7602C23.5454 14.3802 23.5454 13.7469 23.1575 13.3669Z" fill="#1E232C" stroke="#1E232C" stroke-width="0.2"/>
</svg>
