<svg width="14" height="14" viewBox="0 0 14 14" fill="none" xmlns="http://www.w3.org/2000/svg">
<g id="eye-off" clip-path="url(#clip0_184_3166)">
<path id="Vector" d="M10.4649 10.4652C9.46776 11.2253 8.25356 11.6463 6.99992 11.6668C2.91659 11.6668 0.583252 7.00018 0.583252 7.00018C1.30885 5.64795 2.31525 4.46653 3.53492 3.53518M5.77492 2.47351C6.17645 2.37952 6.58754 2.33254 6.99992 2.33351C11.0833 2.33351 13.4166 7.00018 13.4166 7.00018C13.0625 7.66261 12.6402 8.28627 12.1566 8.86101M8.23658 8.23684C8.07637 8.40878 7.88317 8.54668 7.66851 8.64233C7.45384 8.73798 7.22211 8.78941 6.98714 8.79356C6.75216 8.7977 6.51876 8.75448 6.30086 8.66646C6.08295 8.57845 5.88501 8.44744 5.71883 8.28127C5.55265 8.11509 5.42165 7.91714 5.33363 7.69924C5.24562 7.48133 5.20239 7.24793 5.20654 7.01296C5.21068 6.77798 5.26212 6.54625 5.35776 6.33159C5.45341 6.11692 5.59132 5.92372 5.76325 5.76351" stroke="#797B83" stroke-linecap="round" stroke-linejoin="round"/>
<path id="Vector_2" d="M0.583252 0.583496L13.4166 13.4168" stroke="#797B83" stroke-linecap="round" stroke-linejoin="round"/>
</g>
<defs>
<clipPath id="clip0_184_3166">
<rect width="14" height="14" fill="white"/>
</clipPath>
</defs>
</svg>
