<svg width="24" height="24" viewBox="0 0 24 24" fill="none" xmlns="http://www.w3.org/2000/svg">
<g id="Mask group">
<mask id="mask0_184_3154" style="mask-type:alpha" maskUnits="userSpaceOnUse" x="0" y="0" width="24" height="24">
<rect id="Rectangle 3058" width="24" height="24" fill="#D9D9D9"/>
</mask>
<g mask="url(#mask0_184_3154)">
<path id="Vector" d="M20.9483 11.757C20.922 11.6978 20.2868 10.2885 18.8745 8.87625C16.9928 6.9945 14.616 6 12 6C9.384 6 7.00725 6.9945 5.12549 8.87625C3.71324 10.2885 3.07499 11.7 3.05174 11.757C3.01763 11.8337 3 11.9168 3 12.0008C3 12.0847 3.01763 12.1678 3.05174 12.2445C3.07799 12.3038 3.71324 13.7123 5.12549 15.1245C7.00725 17.0055 9.384 18 12 18C14.616 18 16.9928 17.0055 18.8745 15.1245C20.2868 13.7123 20.922 12.3038 20.9483 12.2445C20.9824 12.1678 21 12.0847 21 12.0008C21 11.9168 20.9824 11.8337 20.9483 11.757ZM12 16.8C9.6915 16.8 7.67475 15.9608 6.00524 14.3063C5.32023 13.625 4.73743 12.8482 4.27499 12C4.73731 11.1517 5.32012 10.3749 6.00524 9.69375C7.67475 8.03925 9.6915 7.2 12 7.2C14.3085 7.2 16.3253 8.03925 17.9948 9.69375C18.6811 10.3747 19.2652 11.1515 19.7288 12C19.188 13.0095 16.8323 16.8 12 16.8ZM12 8.4C11.288 8.4 10.592 8.61114 9.99995 9.00671C9.40793 9.40228 8.94651 9.96453 8.67403 10.6223C8.40156 11.2802 8.33026 12.004 8.46917 12.7023C8.60808 13.4007 8.95094 14.0421 9.45441 14.5456C9.95788 15.0491 10.5993 15.3919 11.2977 15.5308C11.996 15.6697 12.7198 15.5984 13.3777 15.326C14.0355 15.0535 14.5977 14.5921 14.9933 14.0001C15.3889 13.408 15.6 12.712 15.6 12C15.599 11.0455 15.2194 10.1304 14.5445 9.45551C13.8696 8.7806 12.9545 8.40099 12 8.4ZM12 14.4C11.5253 14.4 11.0613 14.2592 10.6666 13.9955C10.272 13.7318 9.96434 13.357 9.78269 12.9184C9.60104 12.4799 9.55351 11.9973 9.64611 11.5318C9.73872 11.0662 9.9673 10.6386 10.3029 10.3029C10.6386 9.9673 11.0662 9.73872 11.5318 9.64612C11.9973 9.55351 12.4799 9.60104 12.9184 9.78269C13.357 9.96434 13.7318 10.272 13.9955 10.6666C14.2592 11.0613 14.4 11.5253 14.4 12C14.4 12.6365 14.1471 13.247 13.6971 13.6971C13.247 14.1471 12.6365 14.4 12 14.4Z" fill="#797B83"/>
</g>
</g>
</svg>
