<svg xmlns="http://www.w3.org/2000/svg" width="18" height="19" viewBox="0 0 18 19" fill="none">
  <path d="M15.0897 4.31388C14.7378 3.96073 14.3201 3.68059 13.8602 3.48946C13.4004 3.29833 12.9076 3.19995 12.4099 3.19995C11.9122 3.19995 11.4193 3.29833 10.9595 3.48946C10.4997 3.68059 10.0819 3.96073 9.73009 4.31388L8.99987 5.04645L8.26964 4.31388C7.55891 3.60088 6.59496 3.20032 5.58985 3.20032C4.58473 3.20032 3.62078 3.60088 2.91006 4.31388C2.19933 5.02688 1.80005 5.99392 1.80005 7.00226C1.80005 8.01059 2.19933 8.97763 2.91006 9.69063L3.64028 10.4232L8.99987 15.8L14.3594 10.4232L15.0897 9.69063C15.4417 9.33765 15.7209 8.91855 15.9115 8.45727C16.102 7.99599 16.2 7.50157 16.2 7.00226C16.2 6.50295 16.102 6.00853 15.9115 5.54725C15.7209 5.08597 15.4417 4.66687 15.0897 4.31388V4.31388Z" stroke="black" stroke-width="1.5" stroke-linecap="round" stroke-linejoin="round"/>
</svg>