<svg xmlns="http://www.w3.org/2000/svg" width="18" height="17" viewBox="0 0 18 17" fill="none">
  <path fill-rule="evenodd" clip-rule="evenodd" d="M5.77145 9.54318C5.28788 9.54318 4.89502 9.15032 4.89502 8.66675C4.89502 8.18461 5.28788 7.79175 5.77145 7.79175C6.25502 7.79175 6.64788 8.18461 6.64788 8.66675C6.64788 9.15032 6.25502 9.54318 5.77145 9.54318ZM9.17858 9.54318C8.695 9.54318 8.30215 9.15032 8.30215 8.66675C8.30215 8.18461 8.695 7.79175 9.17858 7.79175C9.66215 7.79175 10.055 8.18461 10.055 8.66675C10.055 9.15032 9.66215 9.54318 9.17858 9.54318ZM11.7094 8.66675C11.7094 9.15032 12.1023 9.54318 12.5858 9.54318C13.0694 9.54318 13.4623 9.15032 13.4623 8.66675C13.4623 8.18461 13.0694 7.79175 12.5858 7.79175C12.1023 7.79175 11.7094 8.18461 11.7094 8.66675Z" fill="black"/>
  <path fill-rule="evenodd" clip-rule="evenodd" d="M9.015 1C4.6575 1 1.5 4.55959 1.5 8.51127C1.5 9.77316 1.8675 11.0719 2.5125 12.2586C2.6325 12.4547 2.6475 12.7018 2.565 12.9354L2.0625 14.6179C1.95 15.0235 2.295 15.3232 2.6775 15.2031L4.1925 14.7531C4.605 14.6179 4.9275 14.7899 5.31 15.0235C6.405 15.6688 7.77 16 9 16C12.72 16 16.5 13.1232 16.5 8.48873C16.5 4.49199 13.275 1 9.015 1Z" stroke="black" stroke-width="1.5" stroke-linecap="round" stroke-linejoin="round"/>
</svg>