<svg width="51" height="85" viewBox="0 0 51 85" fill="none" xmlns="http://www.w3.org/2000/svg">
<g id="Exclude 1 (Traced)">
<path d="M21.2592 2.30064C21.6805 1.52495 22.7771 0.578451 23.7145 0.181324C24.0238 0.0504001 24.9165 -0.0273288 25.6979 0.00889874C27.273 0.0815831 27.8842 0.420701 29.0464 1.86613L29.7428 2.73216L29.8109 18.9823L29.8793 35.2324L30.7219 35.3869C31.1856 35.472 32.4359 35.8469 33.5006 36.2202C37.9589 37.783 40.6144 39.7707 40.9116 41.7669C41.2414 43.9802 40.5306 45.6208 38.7998 46.642C37.168 47.6048 36.1481 47.5055 33.113 46.089C29.4302 44.37 28.3666 44.0949 25.4157 44.0978C20.9959 44.1024 17.8726 45.3454 14.7111 48.3585C12.5751 50.3941 11.2533 52.2967 10.3587 54.6238C9.83214 55.9931 9.7267 56.6683 9.63947 59.2203C9.56227 61.4889 9.62626 62.5693 9.90525 63.6914C11.0027 68.1059 14.1971 72.0893 18.2418 74.0871C21.0476 75.4727 23.1176 75.9141 26.0989 75.7623C30.2257 75.5521 33.4166 74.1536 36.2991 71.2917C39.0922 68.5184 40.5167 65.6938 41.0551 61.861C41.404 59.3771 41.0407 56.8774 39.8353 53.467C38.9225 50.8852 38.9061 50.7864 39.1814 49.5471C39.8758 46.4237 43.5933 45.0283 46.185 46.9185C47.8236 48.1136 49.6524 52.5749 50.1423 56.5727C50.4773 59.3072 50.283 63.2466 49.7009 65.5221C48.099 71.7826 44.2763 77.2135 38.9665 80.7725C34.5537 83.7301 30.3042 85.0132 24.9662 84.9999C14.443 84.9738 4.70837 77.7693 1.54228 67.6643C0.157371 63.2436 0.166936 63.4048 0.0799375 43.2314L0 24.7308L0.574141 23.5898C1.22071 22.3054 1.99025 21.6617 3.3246 21.2896C5.77466 20.6063 7.74214 21.4909 8.9132 23.8019C9.33247 24.6294 9.3598 25.19 9.3598 32.9469C9.3598 40.8429 9.37871 41.2104 9.78227 41.2104C10.43 41.2104 10.4951 39.6705 10.4969 24.3114L10.4985 10.5076L11.6375 9.36088C13.346 7.64099 14.9575 7.32022 17.0245 8.28919C17.9287 8.71291 18.3452 9.09147 18.8367 9.93548L19.4746 11.0315L19.5985 23.1975C19.6663 29.8888 19.8105 35.5016 19.9187 35.6701C20.5627 36.6751 20.6345 35.251 20.747 19.2448C20.8515 4.37294 20.8936 2.97337 21.2592 2.30064Z" fill="#2F82FF"/>
<path d="M24.1681 57.3539C24.1599 55.0496 25.5057 53.1398 27.7221 52.3098C28.851 51.8872 30.6591 52.0342 31.8488 52.6452C34.3061 53.9072 35.4911 57.0352 34.4282 59.4542C33.7807 60.9283 33.1774 61.5609 31.7925 62.2185C28.1165 63.9636 24.1827 61.454 24.1681 57.3539Z" fill="#2F82FF"/>
</g>
</svg>
