<svg width="19" height="19" viewBox="0 0 19 19" fill="none" xmlns="http://www.w3.org/2000/svg">
<g id="svgviewer-output (17) 1" clip-path="url(#clip0_184_1710)">
<g id="Group">
<path id="Vector" d="M14.9981 13.6896L1.5968 18.1677C1.49032 18.2033 1.37601 18.2086 1.2667 18.1828C1.1574 18.1571 1.05743 18.1014 0.978026 18.022C0.898624 17.9426 0.842933 17.8427 0.817208 17.7334C0.791483 17.624 0.796744 17.5097 0.832399 17.4033L5.3105 4.00195L14.9981 13.6896Z" fill="#FDC70E"/>
<path id="Vector_2" d="M14.9981 13.6901C14.9981 13.6901 13.0244 13.2431 9.39289 9.60801C5.85769 6.07611 5.33569 4.10601 5.31079 4.00311V3.99951C5.31079 3.99951 7.28809 4.44681 10.9208 8.07951C14.5535 11.7122 14.9981 13.6901 14.9981 13.6901Z" fill="#D39518"/>
<path id="Vector_3" d="M6.33803 16.5831L4.35203 17.2461C3.93503 16.8741 3.49103 16.4571 3.01703 15.9831C2.54303 15.5091 2.12603 15.0651 1.75403 14.6481L2.41703 12.6621C2.92103 13.2711 3.53603 13.9521 4.29203 14.7081C5.04803 15.4641 5.72903 16.0791 6.33803 16.5831Z" fill="#2167D8"/>
<path id="Vector_4" d="M11.744 14.7773L9.61096 15.4883C8.43786 14.6457 7.34068 13.7021 6.33196 12.6683C5.29819 11.6596 4.3546 10.5625 3.51196 9.38935L4.22296 7.25635C5.18119 8.76591 6.31733 10.1549 7.60696 11.3933C8.84544 12.683 10.2344 13.8191 11.744 14.7773Z" fill="#D3374E"/>
<path id="Vector_5" d="M8.15992 6.622C8.1006 6.62199 8.04261 6.60439 7.99328 6.57142C7.94396 6.53846 7.90552 6.49161 7.88282 6.4368C7.86012 6.38199 7.85418 6.32168 7.86575 6.26349C7.87732 6.20531 7.90588 6.15186 7.94782 6.1099C8.5343 5.55655 8.92164 4.82501 9.04967 4.02892C9.17769 3.23282 9.03924 2.41673 8.65582 1.7074C8.63285 1.6736 8.61702 1.63546 8.60932 1.59532C8.60161 1.55518 8.60219 1.51389 8.61102 1.47398C8.61985 1.43408 8.63673 1.39639 8.66065 1.36325C8.68456 1.3301 8.71499 1.30219 8.75008 1.28123C8.78516 1.26027 8.82416 1.2467 8.86468 1.24135C8.9052 1.236 8.94639 1.23899 8.98571 1.25013C9.02504 1.26127 9.06167 1.28033 9.09336 1.30613C9.12506 1.33194 9.15114 1.36395 9.17002 1.4002C9.61986 2.22491 9.78545 3.17485 9.64121 4.10312C9.49696 5.03139 9.05091 5.88629 8.37202 6.5356C8.34412 6.56328 8.31101 6.58517 8.27461 6.6C8.2382 6.61483 8.19923 6.62231 8.15992 6.622Z" fill="#2167D8"/>
<path id="Vector_6" d="M7.65795 3.61026C7.57839 3.61024 7.50209 3.57863 7.44585 3.52236L6.94365 3.02046C6.91579 2.99259 6.8937 2.9595 6.87864 2.92309C6.86357 2.88668 6.85582 2.84766 6.85583 2.80826C6.85585 2.76885 6.86362 2.72983 6.87872 2.69344C6.89381 2.65704 6.91592 2.62396 6.9438 2.59611C7.00009 2.53986 7.07642 2.50827 7.156 2.5083C7.19541 2.50831 7.23442 2.51609 7.27082 2.53118C7.30722 2.54627 7.34029 2.56839 7.36815 2.59626L7.87005 3.09816C7.91199 3.14012 7.94055 3.19357 7.95212 3.25175C7.96369 3.30994 7.95775 3.37025 7.93505 3.42506C7.91235 3.47987 7.87391 3.52672 7.82458 3.55968C7.77526 3.59265 7.71727 3.61025 7.65795 3.61026Z" fill="#23AF6F"/>
<path id="Vector_7" d="M11.1719 3.10825C11.0924 3.10825 11.0161 3.07664 10.9598 3.02038C10.9036 2.96412 10.8719 2.88781 10.8719 2.80825V2.30635C10.8719 2.22678 10.9036 2.15048 10.9598 2.09422C11.0161 2.03795 11.0924 2.00635 11.1719 2.00635C11.2515 2.00635 11.3278 2.03795 11.3841 2.09422C11.4403 2.15048 11.4719 2.22678 11.4719 2.30635V2.80825C11.4719 2.88781 11.4403 2.96412 11.3841 3.02038C11.3278 3.07664 11.2515 3.10825 11.1719 3.10825Z" fill="#D3374E"/>
<path id="Vector_8" d="M11.6741 5.11611H11.1719C11.0924 5.11611 11.0161 5.08451 10.9598 5.02825C10.9036 4.97198 10.8719 4.89568 10.8719 4.81611C10.8719 4.73655 10.9036 4.66024 10.9598 4.60398C11.0161 4.54772 11.0924 4.51611 11.1719 4.51611H11.6741C11.7537 4.51611 11.83 4.54772 11.8863 4.60398C11.9425 4.66024 11.9741 4.73655 11.9741 4.81611C11.9741 4.89568 11.9425 4.97198 11.8863 5.02825C11.83 5.08451 11.7537 5.11611 11.6741 5.11611Z" fill="#23AF6F"/>
<path id="Vector_9" d="M12.6779 11.1401C12.6185 11.1401 12.5606 11.1225 12.5112 11.0895C12.4619 11.0566 12.4235 11.0097 12.4008 10.9549C12.3781 10.9001 12.3721 10.8398 12.3837 10.7816C12.3953 10.7234 12.4238 10.67 12.4658 10.628C13.1151 9.94911 13.9701 9.50304 14.8984 9.3588C15.8267 9.21455 16.7767 9.38016 17.6015 9.83002C17.667 9.87215 17.7136 9.93813 17.7313 10.014C17.7491 10.0899 17.7366 10.1696 17.6966 10.2365C17.6566 10.3033 17.5921 10.352 17.5169 10.3721C17.4416 10.3923 17.3614 10.3824 17.2934 10.3445C16.5857 9.95398 15.7678 9.81149 14.9697 9.93974C14.1717 10.068 13.4396 10.4596 12.89 11.0522C12.8337 11.1085 12.7574 11.1401 12.6779 11.1401Z" fill="#2167D8"/>
<path id="Vector_10" d="M16.1921 12.1441C16.1126 12.1442 16.0363 12.1127 15.98 12.0565L15.4778 11.5543C15.4231 11.4977 15.3929 11.422 15.3936 11.3433C15.3942 11.2646 15.4258 11.1894 15.4814 11.1338C15.537 11.0781 15.6123 11.0466 15.6909 11.0459C15.7696 11.0452 15.8454 11.0755 15.902 11.1301L16.4042 11.632C16.4461 11.674 16.4747 11.7274 16.4862 11.7856C16.4978 11.8438 16.4919 11.9041 16.4692 11.9589C16.4465 12.0137 16.408 12.0606 16.3587 12.0935C16.3094 12.1265 16.2514 12.1441 16.1921 12.1441Z" fill="#23AF6F"/>
<path id="Vector_11" d="M16.6937 8.12808H16.1921C16.1125 8.12808 16.0362 8.09647 15.98 8.04021C15.9237 7.98395 15.8921 7.90764 15.8921 7.82808C15.8921 7.74851 15.9237 7.67221 15.98 7.61595C16.0362 7.55969 16.1125 7.52808 16.1921 7.52808H16.6937C16.7733 7.52808 16.8496 7.55969 16.9058 7.61595C16.9621 7.67221 16.9937 7.74851 16.9937 7.82808C16.9937 7.90764 16.9621 7.98395 16.9058 8.04021C16.8496 8.09647 16.7733 8.12808 16.6937 8.12808ZM14.1839 8.12808C14.1043 8.12808 14.028 8.09647 13.9718 8.04021C13.9155 7.98395 13.8839 7.90764 13.8839 7.82808V7.32588C13.8839 7.24631 13.9155 7.17001 13.9718 7.11375C14.028 7.05749 14.1043 7.02588 14.1839 7.02588C14.2635 7.02588 14.3398 7.05749 14.396 7.11375C14.4523 7.17001 14.4839 7.24631 14.4839 7.32588V7.82808C14.4839 7.90764 14.4523 7.98395 14.396 8.04021C14.3398 8.09647 14.2635 8.12808 14.1839 8.12808Z" fill="#D3374E"/>
<path id="Vector_12" d="M11.6741 7.12436C11.6148 7.12435 11.5568 7.10675 11.5074 7.07378C11.4581 7.04081 11.4197 6.99397 11.397 6.93916C11.3743 6.88435 11.3683 6.82404 11.3799 6.76585C11.3915 6.70766 11.42 6.65421 11.462 6.61226C11.5887 6.48932 11.7406 6.39538 11.9072 6.33695C12.0738 6.27852 12.2511 6.25699 12.4268 6.27386H12.4334C12.5289 6.28956 12.6267 6.28306 12.7192 6.25486C12.8118 6.22666 12.8966 6.17752 12.9671 6.11126C13.0339 6.03983 13.0833 5.95394 13.1115 5.86028C13.1397 5.76662 13.1459 5.66771 13.1297 5.57126C13.1103 5.39529 13.1307 5.21721 13.1893 5.05017C13.248 4.88314 13.3434 4.73141 13.4686 4.6062C13.5937 4.48099 13.7454 4.38549 13.9124 4.32676C14.0794 4.26802 14.2575 4.24755 14.4335 4.26686C14.5304 4.28635 14.6307 4.28158 14.7253 4.25298C14.82 4.22437 14.9061 4.17282 14.976 4.1029C15.0459 4.03298 15.0975 3.94686 15.1261 3.85221C15.1547 3.75756 15.1595 3.6573 15.14 3.56036C15.1233 3.38447 15.1449 3.20705 15.2035 3.04037C15.2621 2.87369 15.3562 2.72171 15.4793 2.59496C15.5069 2.56574 15.5401 2.54237 15.5769 2.52623C15.6137 2.51009 15.6534 2.50151 15.6936 2.501C15.7338 2.50049 15.7736 2.50807 15.8109 2.52327C15.8481 2.53848 15.8818 2.56101 15.9102 2.58952C15.9385 2.61803 15.9608 2.65195 15.9758 2.68925C15.9907 2.72655 15.9981 2.76649 15.9973 2.80667C15.9965 2.84686 15.9877 2.88648 15.9713 2.92319C15.955 2.9599 15.9314 2.99294 15.902 3.02036C15.8352 3.09182 15.7857 3.17769 15.7573 3.27132C15.729 3.36495 15.7225 3.46384 15.7385 3.56036C15.7578 3.73641 15.7374 3.91456 15.6787 4.08166C15.6199 4.24875 15.5244 4.40052 15.3992 4.52576C15.2739 4.651 15.1222 4.74651 14.9551 4.80523C14.788 4.86396 14.6098 4.88441 14.4338 4.86506C14.3371 4.84561 14.237 4.85039 14.1426 4.87898C14.0482 4.90756 13.9623 4.95906 13.8927 5.02889C13.823 5.09872 13.7717 5.18471 13.7433 5.27918C13.7149 5.37366 13.7103 5.47369 13.73 5.57036C13.747 5.7461 13.7255 5.92344 13.6671 6.09005C13.6087 6.25666 13.5146 6.40855 13.3916 6.53516C13.2644 6.65737 13.1124 6.75083 12.946 6.80922C12.7795 6.8676 12.6025 6.88954 12.4268 6.87356H12.4199C12.3245 6.85777 12.2267 6.86423 12.1342 6.89243C12.0416 6.92063 11.9569 6.96982 11.8865 7.03616C11.8586 7.06411 11.8255 7.08629 11.7891 7.10142C11.7526 7.11656 11.7135 7.12435 11.6741 7.12436Z" fill="#FDC70E"/>
<g id="Group_2">
<path id="Vector_13" d="M12.6782 3.61002C12.6289 3.61004 12.5804 3.59791 12.5369 3.5747C12.4934 3.5515 12.4563 3.51793 12.4288 3.47697C12.4014 3.43601 12.3845 3.38892 12.3796 3.33986C12.3747 3.29081 12.3819 3.2413 12.4007 3.19572C12.5601 2.84162 12.6435 2.45809 12.6457 2.0698C12.6478 1.68151 12.5687 1.29707 12.4133 0.941218C12.3758 0.871042 12.3676 0.788822 12.3907 0.712644C12.4138 0.636467 12.4661 0.572573 12.5363 0.535018C12.6065 0.497464 12.6887 0.489325 12.7649 0.512392C12.8411 0.535459 12.905 0.587842 12.9425 0.658018C13.1395 1.09215 13.2426 1.56302 13.2448 2.03976C13.2471 2.5165 13.1486 2.98833 12.9557 3.42432C12.9331 3.47928 12.8946 3.52628 12.8452 3.55934C12.7958 3.59241 12.7377 3.61004 12.6782 3.61002ZM15.6899 6.62202C15.6204 6.62209 15.553 6.59802 15.4993 6.55393C15.4456 6.50984 15.4088 6.44845 15.3953 6.38027C15.3818 6.31208 15.3924 6.24132 15.4253 6.18009C15.4582 6.11885 15.5113 6.07093 15.5756 6.04452C16.0116 5.85144 16.4835 5.75279 16.9603 5.75507C17.4371 5.75734 17.9081 5.86049 18.3422 6.05772C18.4124 6.09527 18.4648 6.15917 18.4878 6.23534C18.5109 6.31152 18.5028 6.39374 18.4652 6.46392C18.4277 6.5341 18.3638 6.58648 18.2876 6.60955C18.2114 6.63261 18.1292 6.62447 18.059 6.58692C17.7031 6.43141 17.3186 6.35219 16.9303 6.35436C16.5419 6.35653 16.1583 6.44004 15.8042 6.59952C15.7679 6.61437 15.7291 6.62201 15.6899 6.62202Z" fill="#D3374E"/>
</g>
</g>
</g>
<defs>
<clipPath id="clip0_184_1710">
<rect width="18" height="18" fill="white" transform="translate(0.5 0.5)"/>
</clipPath>
</defs>
</svg>
