<svg width="16" height="16" viewBox="0 0 16 16" fill="none" xmlns="http://www.w3.org/2000/svg">
<path d="M4.66671 7.33325L7.33337 1.33325C7.86381 1.33325 8.37252 1.54397 8.74759 1.91904C9.12266 2.29411 9.33337 2.80282 9.33337 3.33325V5.99992H13.1067C13.3 5.99773 13.4914 6.03759 13.6678 6.11673C13.8441 6.19587 14.0011 6.31241 14.1279 6.45826C14.2548 6.60411 14.3484 6.7758 14.4023 6.96142C14.4562 7.14704 14.469 7.34216 14.44 7.53325L13.52 13.5333C13.4718 13.8512 13.3103 14.141 13.0653 14.3493C12.8203 14.5575 12.5083 14.6702 12.1867 14.6666H4.66671M4.66671 7.33325V14.6666M4.66671 7.33325H2.66671C2.31309 7.33325 1.97395 7.47373 1.7239 7.72378C1.47385 7.97382 1.33337 8.31296 1.33337 8.66658V13.3333C1.33337 13.6869 1.47385 14.026 1.7239 14.2761C1.97395 14.5261 2.31309 14.6666 2.66671 14.6666H4.66671" stroke="black" stroke-linecap="round" stroke-linejoin="round"/>
</svg>
