<svg xmlns="http://www.w3.org/2000/svg" width="16" height="16" viewBox="0 0 16 16" fill="none">
  <path fill-rule="evenodd" clip-rule="evenodd" d="M14.4768 4.54335C14.3762 5.0083 14.2752 5.47509 14.3847 5.82811C14.4884 6.16238 14.8207 6.46523 15.1572 6.77186C15.5754 7.15296 16 7.53988 16 8.00016C16 8.46061 15.5753 8.84757 15.157 9.22866C14.8205 9.53518 14.4883 9.83791 14.3845 10.172C14.2752 10.525 14.3761 10.9917 14.4767 11.4566C14.5974 12.0149 14.7176 12.5706 14.4723 12.9234C14.2236 13.2812 13.6761 13.333 13.1293 13.3847C12.6777 13.4274 12.2266 13.47 11.9444 13.685C11.6669 13.8965 11.4914 14.3279 11.3149 14.7617C11.0988 15.2932 10.8812 15.8282 10.4726 15.967C10.0849 16.0989 9.62478 15.812 9.15832 15.5212C8.76329 15.2749 8.36373 15.0258 7.99983 15.0258C7.63593 15.0258 7.23637 15.2749 6.84134 15.5212C6.37488 15.812 5.91473 16.0989 5.52707 15.967C5.11843 15.8282 4.90076 15.2931 4.68459 14.7616C4.50812 14.3278 4.33264 13.8964 4.05507 13.685C3.77287 13.4699 3.32164 13.4272 2.87002 13.3845C2.32332 13.3328 1.77607 13.2811 1.52741 12.9234C1.28229 12.5708 1.40242 12.0153 1.52314 11.4571C1.62372 10.992 1.7247 10.5251 1.61516 10.172C1.51154 9.83786 1.17927 9.5351 0.842824 9.22853C0.424635 8.84748 0 8.46056 0 8.00016C0 7.53984 0.424649 7.1529 0.842874 6.77182C1.17933 6.46524 1.51163 6.16245 1.61533 5.82829C1.72486 5.47524 1.6239 5.00831 1.52335 4.54325C1.40264 3.98499 1.28252 3.42941 1.52775 3.07669C1.7764 2.71906 2.32365 2.6673 2.87032 2.6156C3.32191 2.57289 3.77311 2.53022 4.05524 2.31518C4.33293 2.10365 4.50846 1.67213 4.68497 1.23821C4.90113 0.706815 5.11874 0.171834 5.52724 0.0329393C5.9149 -0.0988063 6.3751 0.188047 6.84158 0.478818C7.23662 0.725063 7.63618 0.974117 8 0.974117C8.36392 0.974117 8.76351 0.725032 9.15856 0.478773C9.625 0.188018 10.0851 -0.0987994 10.4728 0.0329393C10.8813 0.171845 11.0989 0.706902 11.3151 1.23834C11.4915 1.67221 11.667 2.10367 11.9446 2.31518C12.2268 2.53011 12.678 2.57283 13.1296 2.61558C13.6764 2.66736 14.2238 2.71919 14.4724 3.07687C14.7177 3.42961 14.5975 3.98515 14.4768 4.54335Z" fill="#26AF10"/>
  <path d="M11 6L6.875 10L5 8.18182" stroke="white" stroke-linecap="round" stroke-linejoin="round"/>
</svg>