<svg xmlns="http://www.w3.org/2000/svg" width="28" height="28" viewBox="0 0 28 28" fill="none">
  <path d="M3.84345 13.7111C3.23314 12.834 2.98814 12.0071 3.58533 11.5061C4.09064 11.0818 4.83439 11.0008 5.75314 12.0618C5.75314 12.0618 8.49845 15.2511 9.44345 16.1371C9.65783 16.3361 9.9247 16.3668 10.1675 16.1152C10.3731 15.9008 10.2988 15.7149 10.1238 15.459C10.1238 15.459 6.25408 9.70583 5.74658 9.00364C4.90001 7.82895 5.22595 7.06989 5.61751 6.70895C6.1622 6.20364 7.12033 6.10302 8.01064 7.32364L12.6963 13.5952C12.8385 13.7461 13.0681 13.768 13.2366 13.6499L13.3022 13.604C13.475 13.4815 13.5253 13.2474 13.4203 13.0636C12.6 11.6352 9.33626 5.94333 8.8572 4.90645C8.30595 3.70989 8.5422 3.10177 9.12626 2.74958C9.8197 2.33177 10.4716 2.36239 11.2503 3.51958C12.0947 4.77958 15.3738 10.0843 16.2072 11.5105C16.3166 11.6965 16.5506 11.7665 16.7431 11.6724C16.7453 11.6702 16.7497 11.6702 16.7519 11.668C16.9356 11.5783 17.1019 11.3968 17.0253 11.1386C16.5703 9.63802 14.3369 4.96552 13.8688 3.89145C13.2278 2.42364 13.5406 1.92489 14.2035 1.58802C14.8991 1.23583 15.6231 1.51364 16.1153 2.49364C16.4478 3.15864 22.2863 13.7833 22.2863 13.7833C22.201 12.1996 22.6013 11.0774 22.9425 9.95083C23.5638 7.90114 25.0666 6.83583 26.156 7.31489C26.7225 7.56427 26.8253 8.06083 26.7641 8.44145C26.6416 9.18083 26.1209 11.4711 26.0203 13.2649C25.7841 17.4693 27.055 22.3146 22.3191 25.3596C19.1494 27.3983 15.7522 27.0396 13.5078 25.4711C10.7866 23.5702 4.3422 14.4286 3.84345 13.7111Z" fill="#FFCA28"/>
  <path d="M25.7426 11.3246C25.3466 12.9893 25.2942 15.0325 25.3073 15.9031C25.3598 19.2959 25.3423 22.2315 21.9407 24.9134C21.5229 25.2437 20.2126 26.0487 18.6879 26.4687C18.1979 26.6021 18.3838 26.7596 18.6857 26.7246C20.3504 26.5321 21.6126 25.8146 22.3148 25.3618C27.0485 22.3168 25.8848 17.5043 26.121 13.3C26.2217 11.5062 26.7685 8.68433 26.7598 8.44152C26.7488 8.1987 26.1385 9.65995 25.7426 11.3246ZM16.9598 11.4996C16.9598 11.4996 16.6207 11.5018 16.2992 11.0534C15.3345 9.71245 12.3092 4.64839 11.4385 3.40589C10.4454 1.98839 9.52009 2.53089 9.31009 2.64464C9.31009 2.64464 10.0713 2.67089 10.4913 3.29433C11.3488 4.56527 14.5995 10.2615 15.6254 11.4843C16.2882 12.274 16.9598 11.4996 16.9598 11.4996ZM4.9679 11.9306C5.2654 12.25 7.87728 15.3496 8.83978 16.2137C9.66665 16.9553 10.2835 16.0103 10.2835 16.0103C10.2835 16.0103 9.97946 16.0518 9.56384 15.739C8.53134 14.9581 6.08571 12.1734 5.53446 11.5871C4.71634 10.7165 3.95509 11.2612 3.79321 11.3596C3.7954 11.3596 4.26353 11.1781 4.9679 11.9306ZM13.4729 13.4006C13.4729 13.4006 13.1929 13.604 12.6788 13.0025C12.3048 12.5628 8.01071 7.3237 8.01071 7.3237C6.93446 6.00902 6.0879 6.40058 5.9129 6.5012C5.9129 6.5012 6.45321 6.47277 7.0854 7.2012C7.37415 7.5337 11.957 13.3765 12.1407 13.5756C12.8123 14.3084 13.4335 13.6784 13.4729 13.4006Z" fill="#EDA600"/>
  <path d="M22.2687 12.6504C22.2687 12.6504 16.579 3.11071 16.2159 2.46103C15.4087 1.01946 14.4702 1.46134 14.3105 1.53353C14.3105 1.53353 14.8334 1.38478 15.448 2.4304C15.7762 2.98603 19.9565 10.5023 21.2909 12.9042C21.3959 13.3526 21.3871 13.9367 21.0502 14.3129C19.8427 15.667 18.3027 17.0495 18.7555 20.4773C18.8693 21.3457 19.1909 22.1682 19.4293 22.5642C19.7312 23.0607 20.079 22.8726 19.9259 22.5007C19.823 22.2492 19.659 21.6563 19.6262 21.4026C19.473 20.2213 18.9568 18.1563 21.2712 15.6801C21.6627 15.2667 22.658 14.0176 22.2687 12.6504Z" fill="#EDA600"/>
  <path d="M22.6383 6.7724C22.3343 5.69396 21.8618 4.70521 21.2493 3.84771C20.698 3.07553 20.0308 2.41053 19.2696 1.87678C19.1733 1.80896 19.0508 1.59896 19.1558 1.39553C19.2608 1.19209 19.4883 1.21834 19.5736 1.25334C20.5252 1.6449 21.304 2.32084 21.9471 3.24834C22.7105 4.35084 23.089 5.3899 23.2836 6.55146C23.3055 6.67834 23.3011 6.94521 23.0299 7.01521C22.7608 7.08521 22.669 6.8774 22.6383 6.7724ZM21.1508 7.92959C20.8468 6.85115 20.3743 5.8624 19.7618 5.0049C19.2105 4.23271 18.5433 3.56771 17.7821 3.03396C17.6858 2.96615 17.5633 2.75615 17.6683 2.55271C17.7733 2.34709 18.0008 2.37553 18.0861 2.41053C19.0377 2.80209 19.8165 3.47803 20.4596 4.40553C21.223 5.50803 21.6015 6.54709 21.7961 7.70865C21.818 7.83553 21.8136 8.1024 21.5424 8.1724C21.2755 8.2424 21.1815 8.03678 21.1508 7.92959ZM1.87239 16.9443C2.24864 18.0008 2.78458 18.9546 3.45177 19.7705C4.05333 20.5033 4.76208 21.1246 5.55614 21.608C5.65676 21.6693 5.79239 21.8705 5.70051 22.0805C5.60864 22.2927 5.38114 22.2796 5.29145 22.2512C4.31583 21.923 3.49333 21.2996 2.79114 20.4158C1.9577 19.3658 1.50927 18.3552 1.23802 17.209C1.20739 17.0821 1.19427 16.8174 1.46114 16.7299C1.72802 16.6424 1.8352 16.8415 1.87239 16.9443ZM3.27895 15.6908C3.6552 16.7474 4.19114 17.7012 4.85833 18.5171C5.45989 19.2499 6.16864 19.8712 6.9627 20.3546C7.06333 20.4158 7.19895 20.6171 7.10708 20.8271C7.0152 21.0393 6.7877 21.0261 6.69802 20.9977C5.72239 20.6696 4.89989 20.0462 4.1977 19.1624C3.36427 18.1124 2.91583 17.1018 2.64458 15.9555C2.61395 15.8287 2.60083 15.564 2.8677 15.4765C3.13458 15.3868 3.24177 15.588 3.27895 15.6908Z" fill="#B0BEC5"/>
</svg>